<?xml version="1.0" standalone="no"?>
<!DOCTYPE svg PUBLIC "-//W3C//DTD SVG 20010904//EN"
 "http://www.w3.org/TR/2001/REC-SVG-20010904/DTD/svg10.dtd">
<svg version="1.0" xmlns="http://www.w3.org/2000/svg"
 width="700.000000pt" height="700.000000pt" viewBox="0 0 700.000000 700.000000"
 preserveAspectRatio="xMidYMid meet">
<metadata>
Created by potrace 1.14, written by Peter Selinger 2001-2017
</metadata>
<g transform="translate(0.000000,700.000000) scale(0.100000,-0.100000)"
fill="#000000" stroke="none">
<path d="M3278 6995 c-1 -1 -42 -5 -89 -9 -47 -4 -95 -8 -105 -10 -10 -2 -41
-7 -69 -10 -27 -4 -72 -11 -100 -16 -27 -5 -61 -12 -75 -14 -148 -27 -274 -61
-458 -122 -73 -24 -152 -52 -175 -63 -23 -10 -62 -27 -87 -37 -252 -106 -595
-312 -805 -485 -298 -245 -542 -514 -741 -814 -257 -388 -459 -904 -528 -1350
-2 -16 -8 -50 -12 -75 -20 -131 -29 -273 -29 -495 1 -194 7 -329 20 -406 2
-13 6 -46 9 -74 9 -78 23 -156 51 -285 30 -141 110 -394 173 -550 43 -107 138
-302 189 -388 23 -41 43 -76 43 -79 0 -2 13 -24 30 -48 16 -24 30 -48 30 -53
0 -6 4 -12 8 -14 5 -2 30 -34 55 -73 169 -257 446 -554 716 -770 70 -55 297
-218 317 -226 5 -2 54 -30 109 -62 55 -32 107 -62 115 -67 36 -21 192 -96 265
-127 279 -121 633 -223 790 -228 50 -2 100 -6 113 -9 24 -5 77 -11 227 -26 83
-8 511 -5 555 4 14 2 54 7 89 10 35 4 73 8 85 11 11 3 55 7 96 9 122 7 507
113 675 186 11 5 54 23 95 41 541 229 1066 636 1415 1099 27 36 53 66 57 68 4
2 8 10 8 17 0 7 4 15 8 17 13 5 138 200 205 319 160 286 284 605 353 902 2 9
6 27 9 40 3 12 16 83 29 157 43 236 51 330 51 605 0 193 -10 410 -20 425 -2 3
-6 30 -9 60 -3 30 -8 64 -10 75 -2 11 -11 61 -20 110 -135 735 -556 1462
-1146 1977 -107 93 -424 328 -443 328 -3 0 -25 13 -49 29 -67 45 -300 165
-429 220 -227 97 -546 193 -746 225 -33 5 -116 19 -123 21 -3 1 -41 5 -85 10
-44 4 -89 10 -100 12 -25 4 -532 12 -537 8z"/>
</g>
</svg>
